<?xml version="1.0" encoding="UTF-8" standalone="no"?>
<!-- Created with Inkscape (http://www.inkscape.org/) -->

<svg
   xmlns:dc="http://purl.org/dc/elements/1.1/"
   xmlns:cc="http://creativecommons.org/ns#"
   xmlns:rdf="http://www.w3.org/1999/02/22-rdf-syntax-ns#"
   xmlns:svg="http://www.w3.org/2000/svg"
   xmlns="http://www.w3.org/2000/svg"
   xmlns:sodipodi="http://sodipodi.sourceforge.net/DTD/sodipodi-0.dtd"
   xmlns:inkscape="http://www.inkscape.org/namespaces/inkscape"
   width="256"
   height="256"
   viewBox="0 0 256 256"
   id="svg5881"
   version="1.1"
   inkscape:version="0.91 r13725"
   sodipodi:docname="icon.svg">
  <defs
     id="defs5883" />
  <sodipodi:namedview
     id="base"
     pagecolor="#b4b2b6"
     bordercolor="#666666"
     borderopacity="1.0"
     inkscape:pageopacity="0"
     inkscape:pageshadow="2"
     inkscape:zoom="1.4"
     inkscape:cx="290.1658"
     inkscape:cy="100.03316"
     inkscape:document-units="px"
     inkscape:current-layer="layer1"
     showgrid="false"
     inkscape:window-width="1920"
     inkscape:window-height="1176"
     inkscape:window-x="1920"
     inkscape:window-y="0"
     inkscape:window-maximized="1"
     units="px" />
  <metadata
     id="metadata5886">
    <rdf:RDF>
      <cc:Work
         rdf:about="">
        <dc:format>image/svg+xml</dc:format>
        <dc:type
           rdf:resource="http://purl.org/dc/dcmitype/StillImage" />
        <dc:title></dc:title>
      </cc:Work>
    </rdf:RDF>
  </metadata>
  <g
     inkscape:label="Layer 1"
     inkscape:groupmode="layer"
     id="layer1"
     transform="translate(0,-796.36216)">
    <g
       id="g4161"
       transform="matrix(0.25747127,0,0,0.25747127,38.988507,788.02982)">
      <rect
         y="32.362206"
         x="-151.42857"
         height="994.28571"
         width="994.28571"
         id="rect4137"
         style="opacity:1;fill:#274456;fill-opacity:1;stroke:none;stroke-width:1;stroke-miterlimit:4;stroke-dasharray:none;stroke-opacity:1" />
      <path
         id="path6254-2-2"
         d="m 345.3722,246.19931 -8.68516,0.41167 c -81.13118,3.86137 -143.66536,75.54027 -139.98969,159.42639 l 0.0122,0.36771 0.044,0.3717 c 2.05597,17.15716 5.99943,30.06488 11.13121,40.64398 l -0.58353,5.73151 c -4.22284,41.4279 -17.80506,60.19156 -29.23696,71.67954 -5.71594,5.74399 -10.94561,9.36961 -15.48779,13.91301 -2.27111,2.27167 -4.73607,4.97914 -5.89537,9.3966 -1.15932,4.41748 0.21078,9.69952 2.542,13.16564 4.64681,6.90877 12.74253,8.3759 19.68848,7.92976 6.94591,-0.44628 14.29598,-2.63945 22.22249,-6.09521 9.29483,-4.05235 19.29827,-10.12458 29.16102,-17.62611 -3.95803,15.05624 -10.70267,25.1588 -17.18245,32.51438 -4.7745,5.4198 -9.26387,9.17275 -13.03373,13.82111 -1.88493,2.32422 -4.07195,5.13414 -4.48448,9.86421 -0.41247,4.73006 2.43144,9.73253 5.41974,12.28232 7.10018,6.05826 15.19811,4.62684 22.73009,2.43808 7.53196,-2.18876 15.65789,-6.21315 24.19693,-11.69077 11.18353,-7.17404 22.86547,-17.05618 33.43365,-28.66143 -0.32705,18.05673 -6.16732,30.73131 -12.00654,40.61599 -4.02812,6.81884 -8.11512,11.7398 -10.80348,18.16571 -1.34415,3.21295 -2.5615,7.82053 -0.63151,12.71397 1.92997,4.89345 6.17813,7.6866 10.08005,9.26872 8.34744,3.3846 16.86533,1.1008 24.58863,-2.84579 7.72334,-3.94657 15.33277,-10.02746 22.80204,-17.66607 10.17106,-10.4017 19.86708,-23.87307 27.76614,-38.88937 8.05887,17.52509 18.24651,33.26381 28.87724,45.30832 7.49165,8.48796 15.09707,15.2233 22.92594,19.56457 7.82883,4.34124 17.14948,6.80013 25.59982,2.27421 3.84805,-2.061 7.66951,-5.55972 9.1448,-10.2919 1.47525,-4.73216 0.44847,-9.05601 -0.82336,-12.4182 -2.54365,-6.72448 -6.61728,-12.24154 -10.61563,-19.65251 -6.12443,-11.35177 -12.33469,-26.15302 -12.10246,-47.81833 11.14967,11.6278 22.96778,21.4557 34.00919,28.49754 8.14604,5.1952 15.78173,8.99419 22.95792,11.01934 7.1762,2.02513 15.22915,3.06566 21.89874,-2.86176 2.80721,-2.49488 5.38926,-6.81615 5.43173,-11.23916 0.0423,-4.42296 -1.72978,-7.62389 -3.40534,-10.12001 -3.35103,-4.99221 -7.52603,-8.76114 -12.1624,-13.98099 -4.54404,-5.11595 -9.51933,-11.30267 -13.97698,-19.29679 8.78293,6.17119 17.565,11.39786 25.75569,15.27597 8.49698,4.02311 16.32776,6.76651 23.53746,7.84581 7.20972,1.07927 15.18704,1.06271 21.00344,-5.48368 3.20371,-3.60573 4.8236,-10.12339 3.44929,-14.73239 -1.37431,-4.609 -3.87977,-7.37836 -6.45092,-10.152 -5.14227,-5.54723 -11.77257,-11.04008 -18.82116,-18.89311 -14.09719,-15.7059 -29.82971,-39.69723 -31.64306,-84.58138 l -0.11582,-2.89771 c 7.44129,-13.12802 11.14933,-25.2434 12.47016,-49.70483 l 0.0239,-0.47565 -0.0204,-0.47961 c -3.537,-80.77163 -67.54773,-144.73084 -144.70191,-145.90903 l -0.0441,-0.044 z m -1.22305,19.81239 c 67.14579,0.34085 123.07483,55.36955 126.37644,126.64422 -1.73247,19.91107 -7.79995,36.92937 -10.12801,41.30744 -2.3281,4.37805 -3.25148,8.68855 -9.57647,23.18976 l 8.58124,-2.11034 c 4.67692,45.5365 20.90593,72.12172 35.44008,88.3144 6.75777,7.52893 12.03727,12.1726 15.99938,16.07136 -4.18138,-0.87142 -9.36556,-2.36937 -15.70762,-5.36379 -11.44157,-8.21598 -28.0828,-23.95096 -42.31464,-39.27705 -7.85308,-8.45686 -14.96214,-16.77076 -20.0482,-23.57742 -2.54305,-3.40331 -4.57938,-6.4291 -5.94334,-8.89297 -1.36392,-2.46393 -2.01235,-4.40521 -1.93448,-5.37578 2e-4,-0.002 -1.8e-4,-0.004 0,-0.008 l -1.21503,-0.0919 c -2.5e-4,0.002 0.004,0.008 0.004,0.0123 l -0.004,0 c -0.62949,9.65193 1.1232,19.20659 1.29899,20.13614 l -0.0164,-0.0164 5.59558,31.03553 c 5.46367,30.26971 19.41426,49.10467 29.72059,60.70818 1.82642,2.05629 2.23641,2.5728 3.73705,4.21668 -2.09252,-0.82782 -4.2361,-1.68074 -6.55884,-2.78182 -11.02138,-7.74123 -24.66515,-24.23034 -36.07958,-40.3522 -5.98586,-8.45452 -11.37076,-16.80689 -15.47579,-23.73729 -4.10501,-6.9304 -6.93923,-12.48595 -7.78587,-15.15607 l -0.61151,-1.93047 -0.55556,1.94646 c -2.60869,9.15459 -3.70865,15.6388 -3.80901,16.2432 l -0.0239,0.0999 -4.05681,21.77085 c -7.2553,38.96312 2.96981,65.72988 12.01053,82.48702 4.12538,7.64647 7.34578,12.85722 8.69715,15.77157 -1.10234,-0.18132 -2.78636,-0.68599 -5.31181,-2.08635 -0.49746,-0.27587 -1.04951,-0.64724 -1.57875,-0.97925 l 0.096,-0.12401 C 359.8247,593.22239 360.14301,549.1059 344.90425,520.79058 l -0.12381,-0.22783 -0.79539,-0.22783 -0.23181,0.43167 c -15.18408,28.19903 -12.40667,62.19564 -55.16054,112.84707 -1.73021,1.18139 -3.38231,2.19211 -4.89613,2.96568 -1.91472,0.97843 -3.23507,1.29164 -4.51645,1.61072 1.75489,-2.8921 3.64279,-5.81219 7.03045,-11.54691 9.25627,-15.66905 19.80132,-41.17197 12.05852,-77.58685 l -4.76427,-22.43432 c -0.0122,-0.0835 -0.95189,-6.99037 -2.81777,-18.80119 l -1.18306,-0.088 c -0.86071,2.71442 -3.33834,8.2432 -6.90255,15.18003 -3.56421,6.93681 -8.22275,15.30972 -13.46939,23.83721 -10.49328,17.055 -23.39237,34.73646 -34.48882,42.73834 l 0.13179,0.32774 c -3.87613,2.20199 -7.18779,3.50075 -10.55569,4.9201 1.46596,-1.53106 1.95059,-1.9311 3.57319,-3.77302 11.37102,-12.90783 24.99108,-34.67507 25.5159,-70.06479 l 0.3637,-24.96832 0.004,-0.0279 0.0122,-0.15595 c 0,0 1.4705,-14.47738 -2.23023,-23.8412 l -0.62752,-1.59076 -0.51958,1.63072 c -0.84281,2.65803 -3.70272,8.00543 -7.84982,14.61647 -4.1471,6.61105 -9.58834,14.53562 -15.63169,22.56623 -10.06369,13.37297 -21.82478,27.0207 -32.00278,35.38411 -0.50288,0.23124 -1.01748,0.48436 -1.5108,0.69944 -5.31507,2.31724 -9.35156,3.13357 -12.8059,3.6851 3.0919,-2.63623 6.33919,-5.16317 11.41499,-10.2639 12.48278,-12.54397 27.82361,-41.57983 33.90927,-79.01772 l 8.26949,2.99761 -7.27826,-20.10817 c -3.97324,-9.58775 -7.70517,-14.19185 -10.57123,-37.59447 -3.0814,-73.62596 51.32185,-135.4292 121.36037,-138.76264 2.18795,-0.10422 4.36885,-0.14693 6.53485,-0.13587 z m 57.35882,41.44336 -10.15599,11.18318 27.13062,7.06644 10.15599,-11.18321 -27.13062,-7.06641 z m -113.85031,3.49324 -27.13059,7.06642 10.156,11.1832 27.13058,-7.06644 -10.15599,-11.18318 z m 3.76103,21.27523 a 24.55163,44.478957 0 0 0 -24.54865,44.47697 24.55163,44.478957 0 0 0 24.54865,44.48094 24.55163,44.478957 0 0 0 24.55267,-44.48094 24.55163,44.478957 0 0 0 -24.55267,-44.47697 z m 108.58647,0 a 24.55163,44.478957 0 0 0 -24.55264,44.47697 24.55163,44.478957 0 0 0 24.55264,44.48094 24.55163,44.478957 0 0 0 24.55266,-44.48094 24.55163,44.478957 0 0 0 -24.55266,-44.47697 z m -104.03803,10.13201 a 9.8175644,20.071467 0 0 1 9.81624,20.0722 9.8175644,20.071467 0 0 1 -0.75541,7.69392 4.9087824,10.035733 0 0 1 3.15753,9.36465 4.9087824,10.035733 0 0 1 -4.90815,10.03607 4.9087824,10.035733 0 0 1 -4.77224,-7.71392 9.8175644,20.071467 0 0 1 -2.53797,0.69145 9.8175644,20.071467 0 0 1 -9.82027,-20.07217 9.8175644,20.071467 0 0 1 9.82027,-20.0722 z m 108.6464,0 a 9.8175644,20.071467 0 0 1 9.81627,20.0722 9.8175644,20.071467 0 0 1 -0.75143,7.68993 4.9087824,10.035733 0 0 1 3.15352,9.36864 4.9087824,10.035733 0 0 1 -4.90813,10.03607 4.9087824,10.035733 0 0 1 -4.77223,-7.71392 9.8175644,20.071467 0 0 1 -2.538,0.69145 9.8175644,20.071467 0 0 1 -9.81627,-20.07217 9.8175644,20.071467 0 0 1 9.81627,-20.0722 z M 250.68281,473.79201 c 0.57645,1.77253 0.96289,3.70683 1.26302,5.65553 -0.0845,-0.0931 -0.17927,-0.16922 -0.2838,-0.22782 -0.20474,-0.1099 -0.44409,-0.15285 -0.71142,-0.12789 -1.32475,0.12339 -3.13789,1.88415 -4.43252,4.30461 -1.59309,2.97748 -1.87059,5.93325 -0.61951,6.5988 1.24949,0.66411 3.55008,-1.20714 5.13996,-4.1807 0.62601,-1.17373 1.07368,-2.40028 1.27498,-3.49325 0.66905,6.71893 0.18622,12.93474 0.1678,13.13365 -0.0928,0.11481 -2.58414,3.18875 -6.5828,7.76588 0.12157,-0.94153 -0.064,-1.63355 -0.5276,-1.96646 -0.18826,-0.13567 -0.41959,-0.20953 -0.68744,-0.21981 -1.33017,-0.0486 -3.357,1.46019 -4.9561,3.68907 -1.96542,2.73953 -2.6273,5.62856 -1.47881,6.45493 0.10477,0.0718 0.22222,0.12523 0.35169,0.15982 -0.62976,0.67972 -1.30696,1.38577 -1.96645,2.08634 -0.0477,-0.065 -0.10088,-0.12379 -0.15982,-0.17577 -0.24405,-0.20321 -0.5761,-0.29681 -0.97923,-0.27579 -1.34102,0.0679 -3.28875,1.38699 -4.90413,3.32138 -1.72141,2.06377 -2.67374,4.3562 -2.34614,5.64756 -0.37454,0.33792 -0.7468,0.68251 -1.12312,1.0152 0.11378,-0.62443 0.0184,-1.12107 -0.27578,-1.44287 -0.27458,-0.29509 -0.7114,-0.43204 -1.27499,-0.39968 -1.34804,0.0753 -3.26046,1.10727 -4.94812,2.6699 -2.47436,2.29281 -3.70006,4.99294 -2.73783,6.03123 0.12893,0.13733 0.29386,0.24052 0.4916,0.30776 -1.44237,1.09324 -2.88144,2.17056 -4.32057,3.1815 1.47637,-1.88469 1.97547,-3.64429 1.25499,-4.42451 -0.27438,-0.2979 -0.71268,-0.43624 -1.27898,-0.40368 -0.55979,0.035 -1.22765,0.23484 -1.95047,0.58353 2.65719,-2.96153 5.30233,-6.05167 7.90177,-9.23273 -0.31357,1.11629 -0.21072,1.96916 0.28777,2.38613 1.08787,0.90596 3.72191,-0.45933 5.88337,-3.0496 2.16116,-2.5893 3.03249,-5.42344 1.94647,-6.33099 -0.24405,-0.20322 -0.57609,-0.29681 -0.97923,-0.27579 -0.54154,0.0272 -1.1969,0.26072 -1.9065,0.67946 0.86945,-1.12479 1.74078,-2.24891 2.58997,-3.37733 6.06367,-8.05761 11.51858,-16.00413 15.68763,-22.65017 3.75528,-5.98641 6.00596,-10.34709 7.19032,-13.41741 z m 174.32665,6.93054 c 0.33411,0.7758 0.24461,1.26665 0.75141,2.18229 1.4077,2.54296 3.46761,5.60597 6.03126,9.03686 5.12726,6.86178 12.26173,15.19755 20.13612,23.67734 5.88827,6.34102 12.13671,12.67473 18.2656,18.5334 -1.67915,-1.282 -3.27882,-1.71455 -3.91691,-1.05916 -0.65888,0.67962 -0.11971,2.3481 1.30297,4.03283 -2.36931,-1.77692 -4.72811,-3.64064 -7.07442,-5.5796 1.6016,0.89009 2.94394,1.04845 3.5572,0.41965 0.98281,-1.02032 -0.19502,-3.74476 -2.62993,-6.08319 -2.43232,-2.33589 -5.19822,-3.40219 -6.17914,-2.38212 -0.7449,0.77694 -0.25476,2.58104 1.22704,4.51643 -0.94945,-0.87925 -1.9086,-1.75733 -2.83377,-2.63793 -15.11417,-14.38606 -27.11452,-28.14089 -27.29048,-28.34166 -0.042,-0.21746 -1.35637,-7.97044 -1.34695,-16.31514 z m 2.29818,8.84501 c -0.2673,-0.008 -0.50258,0.0499 -0.69944,0.17191 -1.20499,0.74356 -0.74329,3.67302 1.03118,6.54284 1.7751,2.87136 4.19158,4.5951 5.39576,3.84896 1.20179,-0.74683 0.73846,-3.67527 -1.03518,-6.54284 -1.44271,-2.33376 -3.36179,-3.97819 -4.69232,-4.02083 z m -176.32508,0.35174 c -1.33045,0.0185 -3.27783,1.62979 -4.76023,3.94089 -1.82248,2.8411 -2.3326,5.764 -1.13911,6.52686 1.19152,0.76454 3.63408,-0.9175 5.45572,-3.75703 1.82246,-2.84113 2.33259,-5.76401 1.13909,-6.52686 -0.1946,-0.12524 -0.42846,-0.18704 -0.69547,-0.18378 z m -6.82659,0.2558 c -1.31283,0.0707 -3.16986,1.69742 -4.54044,3.97687 -1.68307,2.79843 -2.0729,5.62554 -0.87132,6.31902 1.20625,0.68918 3.55029,-1.0232 5.23589,-3.82498 1.68307,-2.79845 2.07289,-5.62553 0.87131,-6.31903 -0.19727,-0.11399 -0.43122,-0.16514 -0.69544,-0.15183 z m -7.85783,11.39103 c -1.32947,-0.0443 -3.34887,1.47629 -4.93611,3.71705 -1.94988,2.75318 -2.59408,5.64849 -1.43885,6.46692 1.15565,0.81838 3.67367,-0.75115 5.62356,-3.50524 1.94989,-2.75316 2.5941,-5.64848 1.43887,-6.4669 -0.18908,-0.13261 -0.42041,-0.20383 -0.68747,-0.21183 z m 199.95847,0.20383 c -0.4026,-0.0274 -0.73602,0.0608 -0.98323,0.2598 -1.10404,0.88807 -0.27699,3.738 1.84653,6.36297 2.12188,2.62308 4.73452,4.02783 5.8354,3.13755 1.10402,-0.88804 0.27698,-3.73802 -1.84655,-6.363 -1.58507,-1.9589 -3.51208,-3.30805 -4.85215,-3.39732 z m -146.46861,8.2655 c 0.39323,2.53271 0.34833,2.33112 0.66347,4.4205 -1.32432,0.0734 -3.08287,2.04393 -4.20868,4.71628 -1.30946,3.10999 -1.31287,6.07719 -0.008,6.62678 1.305,0.54886 3.42369,-1.52685 4.73228,-4.63632 0.12688,-0.30514 0.24326,-0.61393 0.34774,-0.92328 0.21555,1.47401 0.72101,4.79043 0.77139,5.14394 -0.0517,-0.0122 -0.105,-0.0222 -0.15982,-0.028 -1.32426,-0.11585 -3.28995,1.72824 -4.65632,4.36853 -1.3945,2.6988 -1.74361,5.41498 -0.81936,6.37499 -0.25077,0.39234 -0.55886,0.8569 -0.82336,1.267 -0.0346,-0.0262 -0.0706,-0.0501 -0.10789,-0.072 -0.19973,-0.11766 -0.43632,-0.17005 -0.70344,-0.15593 -1.32903,0.0757 -3.20698,1.7657 -4.59239,4.13273 -1.42219,2.43244 -1.96047,4.95544 -1.30294,6.10718 -0.43231,0.62282 -0.87175,1.25174 -1.31897,1.88653 -0.0776,-0.0164 -0.15879,-0.028 -0.24383,-0.0319 -1.33058,-0.0239 -3.32832,1.52419 -4.88412,3.78502 -1.47196,2.14336 -2.21133,4.44004 -1.84255,5.7235 -0.49189,0.64077 -0.98624,1.27959 -1.48685,1.91848 -0.0604,0.0688 -0.11951,0.13895 -0.17988,0.20784 -1.31854,0.28053 -3.02993,1.45547 -4.48845,3.08157 -1.27369,1.42181 -2.19486,3.01135 -2.49002,4.29663 -0.71584,0.71352 -1.41828,1.44745 -2.14233,2.14232 2.25163,-2.51277 3.22157,-5.31512 2.1663,-6.2591 -0.23619,-0.21221 -0.56417,-0.31792 -0.96724,-0.31174 -0.64652,0.01 -1.46182,0.30884 -2.34216,0.85533 1.32073,-1.83276 2.62791,-3.70086 3.91692,-5.59559 -0.14653,1.02566 0.0445,1.7772 0.53956,2.12232 1.16702,0.80156 3.66328,-0.80179 5.57561,-3.58118 1.91141,-2.77807 2.51609,-5.67984 1.35094,-6.4829 -0.18989,-0.13178 -0.42107,-0.20176 -0.68745,-0.20782 -0.53307,-0.008 -1.19028,0.23775 -1.90252,0.71144 0.90139,-1.41541 1.8058,-2.83122 2.67791,-4.24867 0.44585,-0.72469 0.85793,-1.43665 1.29496,-2.15828 -0.6097,1.94815 -0.47751,3.46057 0.34375,3.9329 1.22643,0.70572 3.58606,-1.08859 5.27184,-4.00884 1.68521,-2.92001 2.0591,-5.86081 0.83534,-6.57083 -0.20114,-0.11705 -0.43913,-0.16801 -0.70745,-0.15184 -0.74141,0.0489 -1.67557,0.60645 -2.61794,1.56276 3.45445,-5.92042 6.55694,-11.59152 9.09284,-16.52698 3.12859,-6.08905 4.96237,-10.3425 6.10319,-13.4334 z m -49.0094,0.73541 c -0.0239,0.0144 -0.0481,0.0297 -0.072,0.044 0.002,-0.002 0.002,-0.006 0.004,-0.008 l 0.004,-0.004 c 0.0214,-0.01 0.0425,-0.0211 0.0639,-0.0318 z m 156.97633,2.05837 c 1.17953,3.10018 3.39051,7.59312 7.0984,13.85308 4.12436,6.96305 9.52236,15.33911 15.52776,23.82125 10.01257,14.14185 21.58206,28.19571 31.90687,36.85095 -0.53122,-0.31741 -1.02635,-0.58042 -1.58275,-0.93525 -9.03851,-5.76444 -19.1843,-14.01756 -28.84129,-23.84521 -1.3239,-1.48239 -2.64719,-2.96869 -3.92488,-4.45649 -2.7756,-3.23197 -5.37509,-6.40355 -7.82185,-9.45256 l 0.008,-0.004 c 0.80039,-0.53774 0.4196,-2.52218 -0.85135,-4.43651 -1.27227,-1.91575 -2.95529,-3.03718 -3.76104,-2.50602 -0.17865,0.12012 -0.30328,0.31789 -0.36771,0.58354 -1.34786,-1.74917 -2.83494,-3.63851 -3.96488,-5.14795 0.86906,-0.55252 0.56465,-2.69242 -0.68345,-4.80421 -1.26034,-2.12945 -3.00557,-3.42764 -3.90092,-2.9017 -0.24157,0.14631 -0.40277,0.42083 -0.47164,0.80335 -1.06948,-1.49586 -1.76875,-2.4962 -1.82257,-2.57397 0.0288,-0.17618 1.29349,-6.80088 3.45327,-14.84829 z m 48.66966,0.0838 c -0.40312,-0.006 -0.73109,0.0999 -0.96725,0.31175 -1.05501,0.9456 -0.0794,3.74891 2.17828,6.25908 2.25708,2.50959 4.94005,3.77504 5.99129,2.82575 1.05152,-0.94719 0.0766,-3.74713 -2.17829,-6.25506 -1.68524,-1.87445 -3.68069,-3.12219 -5.02403,-3.14152 z m -223.39199,2.06636 0.004,0 c -0.28282,0.28487 -0.55732,0.58616 -0.81935,0.89931 0.2606,-0.31292 0.53376,-0.61418 0.81536,-0.89931 z m 174.52249,2.90172 c -0.15572,-0.006 -0.30276,0.0164 -0.43966,0.0679 -1.32736,0.4962 -1.43835,3.46273 -0.24779,6.62276 1.18937,3.15757 3.22767,5.3122 4.5524,4.81223 1.32563,-0.49756 1.43656,-3.46105 0.24781,-6.6188 -1.04775,-2.7823 -2.78397,-4.8442 -4.11276,-4.88416 z m -53.23406,4.58039 c 5.50751,10.63945 9.02752,23.64767 13.62925,38.4457 a 6.1087077,2.5634755 74.286971 0 0 -3.26143,-3.33736 6.1087077,2.5634755 74.286971 0 0 -0.17989,0.0318 6.1087077,2.5634755 74.286971 0 0 -0.81134,6.57481 6.1087077,2.5634755 74.286971 0 0 4.12074,5.18792 6.1087077,2.5634755 74.286971 0 0 1.07116,-5.47169 c 7.19202,22.71212 17.34113,49.44303 41.17957,78.41421 -2.67016,-1.96487 -5.57343,-4.42933 -8.60122,-7.44214 a 2.9953582,1.2569806 49.233979 0 0 0.46364,-0.14386 2.9953582,1.2569806 49.233979 0 0 -1.00322,-3.08957 2.9953582,1.2569806 49.233979 0 0 -2.43008,-1.59075 2.9953582,1.2569806 49.233979 0 0 -0.47962,0.14387 2.9953582,1.2569806 49.233979 0 0 -0.19585,0.84333 c -0.37084,-0.40783 -0.73975,-0.79828 -1.11113,-1.21905 -0.40664,-0.4607 -0.81589,-0.95125 -1.22305,-1.42686 a 3.8011425,1.5951222 55.240447 0 0 1.0432,0 3.8011425,1.5951222 55.240447 0 0 -0.85932,-4.03281 3.8011425,1.5951222 55.240447 0 0 -3.0456,-2.34218 3.8011425,1.5951222 55.240447 0 0 -0.43166,0.12789 3.8011425,1.5951222 55.240447 0 0 -0.14387,2.07439 c -0.56085,-0.71119 -1.11982,-1.44974 -1.67869,-2.18628 a 3.8891801,1.6320666 55.240447 0 0 -1.10711,-3.86095 3.8891801,1.6320666 55.240447 0 0 -3.11756,-2.39813 3.8891801,1.6320666 55.240447 0 0 -0.2518,0.0441 c -1.26283,-1.84126 -2.51617,-3.72796 -3.74504,-5.67953 a 4.1175454,1.7278985 62.572437 0 0 -0.80737,-3.86497 4.1175454,1.7278985 62.572437 0 0 -3.14151,-2.94168 4.1175454,1.7278985 62.572437 0 0 -0.11584,0.0239 c -0.78591,-1.37733 -1.56235,-2.76926 -2.32217,-4.1847 a 4.2682937,1.7911591 66.760815 0 0 -0.49161,-4.15274 4.2682937,1.7911591 66.760815 0 0 -3.02961,-3.27741 4.2682937,1.7911591 66.760815 0 0 -0.22783,0.04 c -0.7856,-1.63562 -1.55347,-3.28633 -2.29421,-4.95607 a 4.0385075,1.6947309 69.748264 0 0 -0.036,-4.23666 4.0385075,1.6947309 69.748264 0 0 -2.69789,-3.24546 4.0385075,1.6947309 69.748264 0 0 -0.29178,0.0441 4.0385075,1.6947309 69.748264 0 0 -0.0519,0.0239 c -0.49003,-1.25834 -0.96356,-2.52281 -1.42287,-3.79301 a 4.2141686,1.7684457 75.482005 0 0 0.29178,-4.30461 4.2141686,1.7684457 75.482005 0 0 -2.64192,-3.65711 4.2141686,1.7684457 75.482005 0 0 -0.12402,0.0204 4.2141686,1.7684457 75.482005 0 0 -0.1678,0.0679 l -1.55878,-4.95209 a 3.9247569,1.6469962 78.743447 0 0 0.42367,-3.91692 3.9247569,1.6469962 78.743447 0 0 -2.26621,-3.54121 3.9247569,1.6469962 78.743447 0 0 -0.11584,0.0122 3.9247569,1.6469962 78.743447 0 0 -0.33174,0.1678 l -4.48446,-14.24079 -3.52921,10.07607 a 2.0098297,4.7893812 17.27462 0 0 -2.23823,3.69309 2.0098297,4.7893812 17.27462 0 0 -0.38771,3.80498 l -3.5692,10.184 c -6.33846,18.08387 -16.9768,35.30718 -28.02191,48.08609 a 1.4464689,3.6213873 32.62162 0 0 -0.22381,-0.41167 1.4464689,3.6213873 32.62162 0 0 -0.53159,-0.15594 1.4464689,3.6213873 32.62162 0 0 -2.58197,2.15032 1.4464689,3.6213873 32.62162 0 0 -1.20705,3.4053 c -0.17823,0.18479 -0.35738,0.38133 -0.53557,0.56355 -2.96919,3.03651 -5.92466,5.69208 -8.74511,7.93776 39.1412,-48.14216 37.68708,-81.24727 51.64731,-108.1348 z m -60.15662,4.1847 c -1.32738,-0.0621 -3.2167,1.85748 -4.47647,4.54842 -1.43155,3.05742 -1.55149,6.02352 -0.26777,6.62278 1.28261,0.60043 3.48222,-1.39156 4.91211,-4.44849 1.42955,-3.05506 1.54943,-6.01802 0.26778,-6.61877 -0.13321,-0.0621 -0.27898,-0.0971 -0.43565,-0.104 z m 59.58108,1.60674 a 2.0467687,4.8774068 19.103395 0 0 -3.18152,3.98487 2.0467687,4.8774068 19.103395 0 0 0.33973,5.27984 2.0467687,4.8774068 19.103395 0 0 3.52922,-3.9369 2.0467687,4.8774068 19.103395 0 0 -0.33573,-5.27984 2.0467687,4.8774068 19.103395 0 0 -0.3517,-0.0479 z m 59.83685,1.69865 c -0.15409,0.0185 -0.29583,0.0618 -0.42366,0.13181 -1.24568,0.67154 -0.95943,3.62169 0.63949,6.59082 1.59874,2.96792 3.90443,4.83178 5.15195,4.1647 1.24801,-0.66997 0.96161,-3.62329 -0.63949,-6.59479 -1.30128,-2.41587 -3.11909,-4.17157 -4.44452,-4.29264 -0.0984,-0.008 -0.19318,-0.008 -0.28377,0 z m -56.92715,3.41732 a 4.6161653,1.9371408 74.494481 0 0 -0.13589,0.0239 4.6161653,1.9371408 74.494481 0 0 -0.63149,4.96808 4.6161653,1.9371408 74.494481 0 0 3.10154,3.92893 4.6161653,1.9371408 74.494481 0 0 0.63151,-4.96809 4.6161653,1.9371408 74.494481 0 0 -2.96566,-3.95289 z m -140.51329,2.06237 c -0.20832,0.76768 -0.13608,1.37697 0.20785,1.75062 0.26583,0.28381 0.6827,0.42052 1.21904,0.39968 -3.09777,1.92853 -6.12711,3.63539 -9.05287,5.13596 2.49441,-2.19678 5.05122,-4.65289 7.62598,-7.28626 z m 265.81856,0.40369 c 6.25111,5.90112 12.3284,11.24838 17.69805,15.47181 -3.49664,-1.86221 -7.13445,-4.00312 -10.83545,-6.37097 0.47573,0.0817 0.83136,0.002 1.0112,-0.22782 0.45019,-0.57088 -0.28703,-1.90397 -1.64671,-2.97767 -1.3594,-1.07349 -2.82651,-1.48142 -3.27742,-0.91127 -0.29934,0.37448 -0.088,1.10479 0.55158,1.90649 -1.29521,-0.87048 -2.59408,-1.76885 -3.89694,-2.69387 0.77408,0.24019 1.379,0.18498 1.71065,-0.15595 0.65624,-0.68324 0.11194,-2.35557 -1.31496,-4.04081 z M 340.4041,539.2483 a 2.5634755,6.1087077 19.103395 0 0 -3.98085,4.99205 2.5634755,6.1087077 19.103395 0 0 0.42366,6.6108 2.5634755,6.1087077 19.103395 0 0 4.42052,-4.93611 2.5634755,6.1087077 19.103395 0 0 -0.42366,-6.61079 2.5634755,6.1087077 19.103395 0 0 -0.43967,-0.0559 z m 9.3886,4.50444 a 6.1087077,2.5634755 74.494481 0 0 -0.17988,0.0318 6.1087077,2.5634755 74.494481 0 0 -0.83933,6.57482 6.1087077,2.5634755 74.494481 0 0 4.10478,5.1999 6.1087077,2.5634755 74.494481 0 0 0.83533,-6.57083 6.1087077,2.5634755 74.494481 0 0 -3.92092,-5.23587 z m 63.22621,0.19584 c -0.26785,-5.1e-4 -0.50181,0.0639 -0.69546,0.19175 -1.18456,0.77561 -0.64588,3.69256 1.20304,6.51487 1.84875,2.82199 4.30741,4.48079 5.49169,3.70507 1.18455,-0.77562 0.64591,-3.69253 -1.20305,-6.51486 -1.5034,-2.29584 -3.46513,-3.88975 -4.79622,-3.89693 z m -76.91542,8.31745 a 2.5634755,6.1087077 19.310906 0 0 -4.00084,4.98007 2.5634755,6.1087077 19.310906 0 0 0.3997,6.6108 2.5634755,6.1087077 19.310906 0 0 4.44047,-4.91614 2.5634755,6.1087077 19.310906 0 0 -0.39968,-6.61077 2.5634755,6.1087077 19.310906 0 0 -0.43965,-0.0639 z m 84.01382,2.85376 c -0.21722,0.0164 -0.40279,0.0837 -0.55157,0.19972 -0.90703,0.70572 -0.2827,3.03131 1.39491,5.19593 1.67832,2.16518 3.77526,3.34965 4.68429,2.64589 0.90703,-0.70571 0.2827,-3.03129 -1.39488,-5.19589 -1.36455,-1.76107 -3.05459,-2.9248 -4.13275,-2.84575 z m 8.29346,9.68037 c -0.29353,0.01 -0.52801,0.10066 -0.69145,0.26378 -0.72564,0.72916 0.094,2.72245 1.83055,4.45248 1.73683,1.73073 3.73397,2.54319 4.46049,1.81458 0.72563,-0.72914 -0.094,-2.72244 -1.83055,-4.45249 -1.29694,-1.29194 -2.79365,-2.11726 -3.76904,-2.07835 z m -96.6039,0.45165 a 2.5634755,6.1087077 19.310906 0 0 -3.99683,4.97606 2.5634755,6.1087077 19.310906 0 0 0.39968,6.61479 2.5634755,6.1087077 19.310906 0 0 4.4365,-4.92011 2.5634755,6.1087077 19.310906 0 0 -0.39968,-6.61079 2.5634755,6.1087077 19.310906 0 0 -0.43967,-0.06 z m 26.67099,4.02082 a 5.3648803,2.2513336 74.286971 0 0 -0.15594,0.0318 5.3648803,2.2513336 74.286971 0 0 -0.71543,5.77145 5.3648803,2.2513336 74.286971 0 0 3.62115,4.5564 5.3648803,2.2513336 74.286971 0 0 0.71545,-5.77542 5.3648803,2.2513336 74.286971 0 0 -3.4653,-4.58441 z m -105.01324,2.33015 c -0.10767,0.73635 0.028,1.29919 0.39169,1.62273 0.73375,0.65666 2.29961,0.25433 4.02883,-1.03519 -1.08593,1.00776 -2.16528,2.0352 -3.26143,2.99765 -1.3488,0.061 -3.27147,1.06936 -4.97609,2.60994 -1.31984,1.19477 -2.35467,2.57116 -2.83376,3.76904 -2.47094,1.89983 -4.91462,3.64893 -7.32621,5.27982 4.58869,-4.03836 9.31604,-9.31896 13.97697,-15.24399 z m 182.11252,0.98725 c -0.12728,0.006 -0.229,0.0447 -0.29977,0.11581 -0.31682,0.31793 0.0413,1.18803 0.79938,1.94249 0.75747,0.75359 1.62703,1.1061 1.94246,0.78735 0.31306,-0.31943 -0.0443,-1.18617 -0.79937,-1.93846 -0.56485,-0.56315 -1.2171,-0.92338 -1.6427,-0.90727 z m -108.81428,4.93209 a 2.5634755,6.1087077 21.563724 0 0 -4.18871,4.81621 2.5634755,6.1087077 21.563724 0 0 0.13588,6.62278 2.5634755,6.1087077 21.563724 0 0 4.63234,-4.73627 2.5634755,6.1087077 21.563724 0 0 -0.13997,-6.62277 2.5634755,6.1087077 21.563724 0 0 -0.43964,-0.08 z m 36.12753,3.90093 a 5.3916073,2.2625495 72.034152 0 0 -0.38769,0.044 5.3916073,2.2625495 72.034152 0 0 -0.4916,5.82739 5.3916073,2.2625495 72.034152 0 0 3.817,4.42853 5.3916073,2.2625495 72.034152 0 0 0.48761,-5.82741 5.3916073,2.2625495 72.034152 0 0 -3.42532,-4.47249 z m -41.27948,8.93297 a 1.9775813,4.7125343 26.477102 0 0 -3.54121,3.42531 1.9775813,4.7125343 26.477102 0 0 -0.33174,5.09996 1.9775813,4.7125343 26.477102 0 0 3.87295,-3.33737 1.9775813,4.7125343 26.477102 0 0 0.33175,-5.09997 1.9775813,4.7125343 26.477102 0 0 -0.33175,-0.088 z m 46.55933,3.85297 a 4.9541158,2.0789592 67.120774 0 0 -0.35573,0.072 4.9541158,2.0789592 67.120774 0 0 0.0122,5.37177 4.9541158,2.0789592 67.120774 0 0 3.84099,3.75702 4.9541158,2.0789592 67.120774 0 0 -0.0122,-5.37177 4.9541158,2.0789592 67.120774 0 0 -3.48527,-3.82896 z m -52.11895,6.02723 a 1.6576604,3.9501694 31.025439 0 0 -3.00163,2.63393 1.6576604,3.9501694 31.025439 0 0 -0.61552,4.24066 1.6576604,3.9501694 31.025439 0 0 3.45728,-2.52999 1.6576604,3.9501694 31.025439 0 0 0.61551,-4.24068 1.6576604,3.9501694 31.025439 0 0 -0.45564,-0.104 z m 58.32206,6.99849 a 4.4293388,1.8587405 62.572437 0 0 -0.30776,0.088 4.4293388,1.8587405 62.572437 0 0 0.38771,4.78823 4.4293388,1.8587405 62.572437 0 0 3.69308,3.07756 4.4293388,1.8587405 62.572437 0 0 -0.39168,-4.78822 4.4293388,1.8587405 62.572437 0 0 -3.38135,-3.16551 z m -64.25337,1.76261 a 1.4464689,3.6213873 32.62162 0 0 -0.11602,0.004 1.4464689,3.6213873 32.62162 0 0 -2.58196,2.1503 1.4464689,3.6213873 32.62162 0 0 -0.95525,3.98085 1.4464689,3.6213873 32.62162 0 0 3.10954,-1.99443 1.4464689,3.6213873 32.62162 0 0 0.95526,-3.98085 1.4464689,3.6213873 32.62162 0 0 -0.41167,-0.15983 z"
         style="display:inline;opacity:1;fill:#ffffff;fill-opacity:1;stroke:#000000;stroke-width:0;stroke-linecap:round;stroke-miterlimit:4;stroke-dasharray:none;stroke-opacity:1"
         inkscape:connector-curvature="0" />
      <text
         sodipodi:linespacing="125%"
         id="text4142"
         y="807.40607"
         x="-50.454891"
         style="font-style:italic;font-variant:normal;font-weight:normal;font-stretch:normal;font-size:116.51533508px;line-height:125%;font-family:Molle;-inkscape-font-specification:'Molle, Italic';text-align:start;letter-spacing:0px;word-spacing:0px;writing-mode:lr-tb;text-anchor:start;fill:#ffffff;fill-opacity:1;stroke:none;stroke-width:1px;stroke-linecap:butt;stroke-linejoin:miter;stroke-opacity:1"
         xml:space="preserve"><tspan
           y="807.40607"
           x="-50.454891"
           id="tspan4144"
           sodipodi:role="line">Sales-Suckers</tspan></text>
    </g>
  </g>
</svg>
